<svg width="465" height="226" viewBox="0 0 465 226" fill="none" xmlns="http://www.w3.org/2000/svg">
<path d="M272.892 122.051C297.625 104.634 301.021 60.4079 300.064 24.9037C299.333 5.65212 313.392 -2.70338 322.096 1.1364C343.441 10.2155 344.169 70.2692 344.011 91.3612C344.287 91.7081 344.275 92.2844 344.839 92.402C345.943 93.7897 347.06 94.6012 348.741 95.5302C349.581 95.9948 350.145 96.1124 350.986 96.5769C353.519 97.3943 355.788 97.2884 357.781 96.8357C359.209 96.2653 360.35 95.9243 361.503 95.007C362.655 94.0897 363.244 93.0548 363.844 91.4437C364.144 90.6381 364.156 90.0618 364.457 89.2562C369.717 68.0702 363.477 27.7031 368.244 16.5427C373.876 4.69425 389.747 4.52973 400.334 26.7038C403.863 34.0951 410.824 67.0885 400.52 99.0881C399.884 102.428 402.069 106.356 409.74 105.35C417.412 104.345 418.973 97.4359 418.985 96.8596C423.248 82.7003 421.066 51.5709 421.319 39.4696C421.44 33.7071 422.605 18.6128 434.815 17.3957C447.025 16.1786 463.362 47.9432 463.864 78.1435C464.306 97.6244 468.786 166.195 409.656 202.487C345.551 241.832 71.0808 237.561 0.0478185 141.384C56.8746 146.618 247.294 140.156 272.892 122.051Z" fill="#57BED2"/>
</svg>
