<svg width="515" height="281" viewBox="0 0 515 281" fill="none" xmlns="http://www.w3.org/2000/svg">
<path d="M294.94 147.498C252.33 130.691 227.476 74.5939 212.693 28.7281C204.974 3.81041 181.455 -3.75745 170.988 3.1453C145.166 19.6395 171.422 97.0179 181.224 124.101C180.994 124.61 181.273 125.348 180.535 125.627C179.616 127.66 178.418 128.956 176.482 130.53C175.514 131.317 174.776 131.596 173.808 132.383C170.625 134.006 167.394 134.382 164.392 134.25C162.129 133.839 160.374 133.659 158.34 132.739C156.306 131.82 155.011 130.623 153.437 128.687C152.65 127.719 152.371 126.981 151.584 126.013C134.581 99.9606 125 46.6494 113.243 33.3765C99.9602 19.4143 77.6188 22.7873 72.8374 53.6887C71.2436 63.9891 76.4644 107.982 105.454 146.799C107.864 150.949 106.583 156.493 95.3637 156.933C84.1442 157.373 78.8155 148.842 78.5369 148.104C66.1247 130.861 55.0472 90.3439 49.1956 74.8418C46.4091 67.4599 37.9176 48.3157 20.2352 49.5084C2.5528 50.7011 -5.9392 95.2321 7.07417 134.176C15.3016 159.323 34.6464 214.061 134.087 247.369C208.991 272.649 465.953 337.748 514.736 168.712C440.194 172.789 339.074 164.995 294.94 147.498Z" fill="#56D5F5"/>
</svg>
