<svg width="280" height="400" viewBox="0 0 280 400" fill="none" xmlns="http://www.w3.org/2000/svg">
<path d="M167.732 399.491C167.771 248.5 180.271 229.833 124.669 213C76.7715 198.5 -0.307969 181.015 8.61894 155.908C15.3141 136.939 60.5066 144.75 86.7294 154.234C102.909 160.372 105.699 150.887 105.699 150.329C107.931 134.149 88.9612 128.012 58.8328 116.853C22.0093 103.463 -1.98182 81.7033 0.807844 66.6392C8.06096 29.2577 87.2873 73.8923 112.952 96.7675C122.437 105.136 130.248 94.5358 124.669 85.0509C109.047 59.386 82.2659 51.575 64.97 32.0474C57.159 23.6784 53.8115 13.0777 63.2963 3.0349C76.6867 -10.9134 214.771 42 262.271 133.5C325.605 255.5 197.302 355.414 167.732 399.491Z" fill="#FF969F"/>
</svg>
