<svg width="587" height="248" viewBox="0 0 587 248" fill="none" xmlns="http://www.w3.org/2000/svg">
<path d="M274.163 159.133C322.204 156.899 370.245 197.831 404.226 233.581C422.388 253.132 448.166 250.339 455.197 239.725C472.773 214.03 414.186 154.26 393.094 133.592C393.094 133.033 392.509 132.475 393.094 131.916C393.094 129.682 393.68 128.006 394.852 125.772C395.438 124.655 396.024 124.096 396.61 122.979C398.953 120.186 401.882 118.51 404.812 117.393C407.155 116.834 408.913 116.276 411.256 116.276C413.6 116.276 415.358 116.834 417.701 117.951C418.873 118.51 419.459 119.069 420.63 119.627C448.166 136.385 480.389 181.073 497.38 188.335C516.127 195.596 536.047 183.307 527.259 153.143C524.33 143.088 500.309 105.104 455.783 81.6425C451.682 78.8495 450.51 73.2636 461.055 68.2362C471.601 63.2088 480.389 68.7948 480.975 69.3534C500.309 79.9667 528.431 112.365 540.734 124.096C546.593 129.682 562.997 143.647 579.402 135.268C595.806 126.889 584.674 82.7597 555.381 52.5955C536.633 33.0446 494.45 -8.91966 384.892 1.69369C302.284 9.51404 -24.9066 20.3506 1.51328 194.684C14.4025 138.824 224.363 161.367 274.163 159.133Z" fill="#8083D6"/>
</svg>
