<svg width="419" height="334" viewBox="0 0 419 334" fill="none" xmlns="http://www.w3.org/2000/svg">
<mask id="mask0_2400_322" style="mask-type:luminance" maskUnits="userSpaceOnUse" x="0" y="0" width="419" height="334">
<path d="M419 0.833984H0V333.62H419V0.833984Z" fill="white"/>
</mask>
<g mask="url(#mask0_2400_322)">
<path d="M257.562 504.955C257.204 480.026 242.175 460.796 255.773 439.428C261.497 430.524 271.876 426.251 281.538 428.744C282.969 429.1 284.399 429.457 285.473 429.813C284.041 422.69 284.041 415.924 285.473 409.87C287.62 401.323 292.631 394.557 300.146 390.283C309.806 384.585 320.542 386.366 330.562 391.351C330.204 378.887 274.534 395.313 274.534 395.313L315.533 204.742C315.533 204.742 327.699 192.279 342.729 192.279C344.518 192.279 345.95 192.279 347.738 192.635C345.234 185.156 346.307 176.967 353.106 168.775C359.189 161.297 373.86 158.803 390.321 162.721C394.973 163.79 401.057 165.925 408.214 169.487C395.331 130.67 368.85 71.9094 322.69 48.4058C233.945 3.17828 163.092 58.7335 136.611 84.73C80.0722 140.285 53.5914 223.262 76.8512 269.913C87.2284 290.213 104.764 300.896 129.097 301.965C184.92 304.101 260.747 261.707 286.934 231.73L315.533 204.742L274.534 395.313C252.705 414.188 136.611 513.858 108.342 513.858C85.0827 513.858 61.1063 507.803 38.9203 496.051H38.5624C38.2045 496.051 38.2045 495.695 37.8466 495.695C31.0475 492.133 24.6062 487.86 18.1658 482.875C-27.6387 451.18 -58.4134 412.719 -67.717 374.614C-72.3687 355.739 -73.8003 351.823 -73.8003 338.289C-73.4424 312.648 -74.1582 299.472 -86.682 297.335C-97.0601 295.554 -104.575 304.814 -108.869 317.633C-111.016 324.044 -112.447 330.811 -112.805 337.576C-114.594 361.793 -118.172 367.491 -121.751 367.135C-132.844 366.067 -136.422 356.807 -132.487 336.508C-131.413 331.167 -119.246 284.515 -146.085 284.515C-155.388 284.515 -171.491 305.526 -167.913 352.891C-167.913 353.247 -167.913 353.247 -167.913 353.247C-167.913 353.603 -167.913 353.959 -167.913 354.316C-167.913 354.672 -167.913 355.028 -167.913 355.383C-167.913 355.739 -167.913 356.095 -168.271 356.451C-168.271 356.807 -168.629 357.163 -168.629 357.519C-168.629 357.875 -168.987 358.232 -168.987 358.588C-168.987 358.944 -169.345 359.3 -169.345 359.3C-169.702 359.656 -169.702 360.012 -170.06 360.012C-170.418 360.368 -170.418 360.368 -170.776 360.725C-171.134 361.081 -171.134 361.081 -171.491 361.437C-171.849 361.793 -171.849 361.793 -172.207 362.15C-172.565 362.505 -172.565 362.505 -172.923 362.505C-173.281 362.861 -173.638 362.861 -173.996 362.861C-173.996 362.861 -174.354 362.861 -174.354 363.217H-174.712C-175.07 363.217 -175.428 363.574 -175.786 363.574C-176.144 363.574 -176.502 363.574 -176.859 363.93H-177.217C-177.574 363.93 -177.574 363.93 -177.932 363.93C-178.29 363.93 -178.648 363.93 -179.006 363.93C-179.364 363.93 -179.722 363.93 -180.08 363.93C-180.438 363.93 -180.795 363.93 -180.795 363.574C-181.153 363.574 -181.511 363.217 -181.869 363.217C-182.227 363.217 -182.227 362.861 -182.584 362.861C-182.942 362.505 -183.3 362.505 -183.658 362.15C-184.016 362.15 -184.016 361.793 -184.374 361.793C-184.731 361.437 -185.089 361.437 -185.089 361.081C-185.447 360.725 -185.447 360.725 -185.805 360.368C-186.163 360.012 -186.163 359.656 -186.521 359.3C-186.521 358.944 -186.879 358.944 -186.879 358.588C-187.237 358.232 -187.237 357.875 -187.595 357.519C-187.595 357.519 -187.595 357.163 -187.952 357.163V356.807C-187.952 356.45 -188.31 356.095 -188.31 355.739C-191.173 347.192 -187.595 344.343 -186.163 326.182C-185.447 317.633 -183.658 305.17 -194.394 303.033C-205.129 300.896 -213.001 311.937 -219.442 332.236C-223.737 345.412 -226.957 364.286 -226.957 385.297C-226.957 386.009 -226.957 386.722 -226.957 387.434C-226.241 425.539 -214.075 471.835 -175.786 510.296C-114.594 571.549 -42.3107 595.766 -2.23164 607.874C50.7282 623.543 260.068 643.486 257.562 504.955ZM159.513 172.692C154.86 179.103 144.842 188.361 133.748 188.361C129.813 188.361 125.876 187.293 121.94 184.444C116.929 180.883 113.709 175.898 112.635 170.2C110.846 159.516 117.645 150.257 118.361 149.188C120.508 145.984 125.161 145.271 128.023 147.764C131.243 149.9 131.958 154.53 129.455 157.379C128.381 158.803 125.518 164.145 126.234 168.063C126.592 169.131 126.95 171.267 129.813 173.049C137.327 178.391 148.063 164.501 148.063 164.501C150.209 161.297 154.86 160.584 157.723 163.077C160.944 165.213 161.66 169.487 159.513 172.692ZM212.474 204.388C207.822 210.797 197.802 220.057 186.709 220.057C182.773 220.057 178.837 218.989 174.9 216.14C169.891 212.578 166.67 207.592 165.596 201.895C163.808 191.21 170.607 181.596 171.323 180.883C173.47 177.678 178.121 176.967 180.983 179.459C184.204 181.596 184.92 186.225 182.415 189.074C181.341 190.499 178.479 195.841 179.195 199.758C179.552 200.826 179.909 202.963 182.773 204.742C190.288 210.085 201.023 196.197 201.023 196.197C203.17 192.992 207.822 192.279 210.685 194.772C213.906 196.909 214.621 201.183 212.474 204.388Z" fill="#224884"/>
</g>
</svg>
