<svg width="420" height="112" viewBox="0 0 420 112" fill="none" xmlns="http://www.w3.org/2000/svg">
<path d="M366.891 23.4251L365.409 24.6234C360.62 28.6175 353.665 28.6175 348.819 24.6234L347.337 23.4251V64.6212H366.834V23.4251H366.891ZM40.8527 1.85713V26.3922H31.6172V1.85713H5.67773V64.6212H31.6172V52.3537H40.8527V64.5642H66.7921V1.85713H40.8527ZM314.385 15.4941H295.914V64.6212H315.582V30.6715L314.385 15.4941ZM315.582 36.4344C315.582 36.4344 315.583 32.0409 318.49 31.8698C321.226 31.7557 321.055 35.8639 321.055 35.8639V64.6212H342.092C342.092 64.6212 342.377 35.6356 342.092 30.101C341.807 24.5663 339.584 14.2958 328.353 14.2958C317.122 14.2958 315.64 30.6715 315.64 30.6715V36.4344H315.582ZM181.496 15.4941H163.025V64.6212H182.693V30.6715L181.496 15.4941ZM124.771 37.7468V64.6212H147.404C147.404 64.6212 147.404 66.6183 147.404 48.8161C147.404 41.3985 141.019 38.6597 137.37 34.7227C132.467 29.4163 131.498 21.4852 138.852 14.4099C139.137 14.1817 138.852 13.7252 138.51 13.7823C134.805 14.7523 124.771 18.2899 124.771 27.8186C124.771 39.4585 124.771 37.8038 124.771 37.7468ZM120.609 15.4941V64.6212H102.822L101.283 52.5249C99.3447 57.546 95.183 65.2489 87.3156 65.1918C75.6287 65.0777 71.1819 51.0414 71.1819 38.4885C71.1819 25.9357 76.2558 14.7523 86.7455 14.3529C94.4419 14.0676 98.9456 19.6593 100.941 22.9687V22.3981L102.081 15.3799H120.609V15.4941ZM100.998 49.2155V24.5093C100.257 23.5393 99.1737 22.6263 97.9764 22.6263C95.582 22.6263 93.8718 30.5574 93.8718 39.3444C93.8718 48.1314 95.525 52.9243 98.6606 52.7531C99.6297 52.696 100.371 51.2125 100.998 49.2155ZM419.682 15.4941V64.6212H401.895L400.356 52.5249C398.418 57.546 394.256 65.2489 386.389 65.1918C374.702 65.0777 370.255 51.0414 370.255 38.4885C370.255 25.9357 375.329 14.7523 385.818 14.3529C393.515 14.0676 398.019 19.6593 400.014 22.9687V22.3981L401.154 15.3799H419.682V15.4941ZM400.071 49.2155V24.5093C399.33 23.5393 398.247 22.6263 397.049 22.6263C394.655 22.6263 392.945 30.5574 392.945 39.3444C392.945 48.1314 394.598 52.9243 397.734 52.7531C398.703 52.696 399.501 51.2125 400.071 49.2155ZM182.636 36.4344C182.636 36.4344 182.636 32.0409 185.543 31.8698C188.28 31.7557 188.109 35.8639 188.109 35.8639V64.6212H209.145C209.145 64.6212 209.43 35.6356 209.145 30.101C208.86 24.5663 206.637 14.2958 195.406 14.2958C184.175 14.2958 182.693 30.6715 182.693 30.6715V36.4344H182.636ZM209.031 36.4344C209.031 36.4344 209.031 32.0409 211.939 31.8698C214.675 31.7557 214.504 35.8639 214.504 35.8639V64.6212H235.541C235.541 64.6212 235.826 35.6356 235.541 30.101C235.256 24.5663 233.032 14.2958 221.802 14.2958C210.571 14.2958 209.088 30.6715 209.088 30.6715V36.4344H209.031ZM291.011 39.5726C291.011 53.5519 279.666 64.9065 265.699 64.9065C251.732 64.9065 240.387 53.5519 240.387 39.5726C240.387 25.5934 251.732 14.2388 265.699 14.2388C279.666 14.2388 291.011 25.5934 291.011 39.5726ZM268.378 39.5726C268.378 26.4492 267.181 15.8364 265.699 15.8364C264.217 15.8364 263.02 26.4492 263.02 39.5726C263.02 52.696 264.217 63.3089 265.699 63.3089C267.181 63.3089 268.378 52.696 268.378 39.5726ZM357.143 0.830078C351.043 0.830078 346.083 5.79415 346.083 11.8994C346.083 18.0046 351.043 22.9687 357.143 22.9687C363.243 22.9687 368.202 18.0046 368.202 11.8994C368.202 5.79415 363.243 0.830078 357.143 0.830078Z" fill="#224884"/>
<path d="M147.791 36.3054C153.745 36.3054 158.571 31.4792 158.571 25.5258C158.571 19.5723 153.745 14.7461 147.791 14.7461C141.838 14.7461 137.012 19.5723 137.012 25.5258C137.012 31.4792 141.838 36.3054 147.791 36.3054Z" fill="#224884"/>
<path d="M10.4128 84.0391V109.819H6.07812V84.0391H10.4128ZM7.84621 93.9632H26.2686V97.9557H7.84621V93.9632ZM27.7515 84.0391V109.819H23.4168V84.0391H27.7515Z" fill="#57BED2"/>
<path d="M39.2718 84.0391V109.819H34.9941V84.0391H39.2718ZM37.6748 84.0391H50.6788V87.8604H37.6748V84.0391ZM37.6748 94.1343H49.9374V97.8986H37.6748V94.1343ZM37.6748 105.998H50.6788V109.819H37.6748V105.998Z" fill="#57BED2"/>
<path d="M63.2858 100.808L63.2287 101.778L59.6355 109.82H54.7305L67.3353 82.6143L79.9971 109.82H75.035L71.5559 101.949L71.4988 100.866L67.3923 91.2836L63.2858 100.808ZM61.4036 99.4967H73.381L74.1795 103.204H60.5481L61.4036 99.4967Z" fill="#57BED2"/>
<path d="M88.7194 84.0391V105.941H98.9858V109.819H84.3848V84.0391H88.7194Z" fill="#57BED2"/>
<path d="M107.998 84.0391V109.819H103.549V84.0391H107.998Z" fill="#57BED2"/>
<path d="M138.285 84.039V111.131L119.463 92.5372V109.876H115.186V82.7842L134.007 101.378V84.039H138.285Z" fill="#57BED2"/>
<path d="M157.79 96.3599H170.223C170.28 98.242 170.052 100.01 169.482 101.721C168.969 103.432 168.113 104.915 167.029 106.17C165.946 107.482 164.634 108.508 163.037 109.25C161.44 109.991 159.615 110.391 157.561 110.391C155.622 110.391 153.854 110.048 152.2 109.421C150.546 108.794 149.12 107.824 147.923 106.626C146.725 105.428 145.755 104.003 145.128 102.349C144.443 100.695 144.158 98.9265 144.158 96.9302C144.158 94.991 144.5 93.1659 145.185 91.5119C145.869 89.8579 146.839 88.489 148.037 87.2913C149.291 86.0935 150.717 85.181 152.371 84.5536C154.025 83.9262 155.793 83.584 157.733 83.584C159.444 83.584 160.984 83.8121 162.352 84.2684C163.721 84.7247 164.976 85.4091 166.06 86.2646C167.143 87.1202 168.056 88.1468 168.797 89.3445L165.261 91.683C164.577 90.4282 163.55 89.4586 162.295 88.7172C161.041 87.9757 159.501 87.6335 157.733 87.6335C156.079 87.6335 154.596 88.0327 153.227 88.7742C151.858 89.5727 150.774 90.6564 149.976 92.0252C149.177 93.394 148.778 95.0481 148.778 96.9302C148.778 98.8124 149.177 100.409 149.976 101.835C150.774 103.261 151.858 104.345 153.17 105.143C154.539 105.942 156.022 106.341 157.733 106.341C158.873 106.341 159.9 106.17 160.812 105.885C161.725 105.543 162.524 105.086 163.151 104.516C163.835 103.946 164.349 103.261 164.805 102.463C165.261 101.721 165.603 100.866 165.775 100.01H157.847V96.3599H157.79Z" fill="#57BED2"/>
<path d="M193.093 84.0391V109.819H188.645V84.0391H193.093Z" fill="#57BED2"/>
<path d="M223.382 84.039V111.131L204.561 92.5372V109.876H200.283V82.7842L219.105 101.378V84.039H223.382Z" fill="#57BED2"/>
<path d="M242.602 91.5683C243.287 89.9713 244.199 88.5455 245.397 87.3477C246.595 86.15 248.021 85.2374 249.675 84.553C251.329 83.8686 253.097 83.5264 254.979 83.5264C256.918 83.5264 258.686 83.8686 260.34 84.553C261.937 85.2374 263.363 86.15 264.618 87.3477C265.816 88.5455 266.785 89.9713 267.413 91.5683C268.097 93.1653 268.382 94.9904 268.382 96.9296C268.382 98.8688 268.04 100.637 267.413 102.291C266.728 103.945 265.816 105.371 264.618 106.569C263.42 107.766 261.994 108.736 260.397 109.363C258.8 110.048 256.975 110.39 255.036 110.39C253.097 110.39 251.329 110.048 249.732 109.363C248.078 108.679 246.652 107.766 245.454 106.569C244.256 105.371 243.344 103.945 242.659 102.291C241.975 100.637 241.69 98.8688 241.69 96.9296C241.633 94.9904 241.975 93.2224 242.602 91.5683ZM247.393 101.664C248.135 103.032 249.218 104.116 250.53 104.915C251.842 105.713 253.325 106.112 255.036 106.112C256.747 106.112 258.287 105.713 259.599 104.915C260.911 104.116 261.937 103.032 262.679 101.664C263.42 100.295 263.819 98.6977 263.819 96.9296C263.819 95.1616 263.477 93.5646 262.736 92.1957C261.994 90.8269 260.968 89.7432 259.656 88.9447C258.344 88.1462 256.804 87.747 255.093 87.747C253.382 87.747 251.899 88.1462 250.587 88.9447C249.275 89.7432 248.249 90.8269 247.45 92.1957C246.709 93.5646 246.31 95.1616 246.31 96.9296C246.31 98.6977 246.595 100.295 247.393 101.664Z" fill="#57BED2"/>
<path d="M297.242 84.039V111.131L278.42 92.5372V109.876H274.143V82.7842L292.964 101.378V84.039H297.242Z" fill="#57BED2"/>
<path d="M308.762 84.0391V109.819H304.484V84.0391H308.762ZM307.165 84.0391H320.169V87.8604H307.165V84.0391ZM307.165 94.1343H319.428V97.8986H307.165V94.1343ZM307.165 105.998H320.169V109.819H307.165V105.998Z" fill="#57BED2"/>
<path d="M350.115 84.039V111.131L331.293 92.5372V109.876H327.016V82.7842L345.837 101.378V84.039H350.115Z" fill="#57BED2"/>
<path d="M361.576 84.0391V109.819H357.299V84.0391H361.576ZM360.037 84.0391H373.041V87.8604H360.037V84.0391ZM360.037 94.1343H372.299V97.8986H360.037V94.1343ZM360.037 105.998H373.041V109.819H360.037V105.998Z" fill="#57BED2"/>
<path d="M383.362 104.116C383.99 104.858 384.731 105.428 385.53 105.828C386.328 106.227 387.184 106.455 388.153 106.455C389.351 106.455 390.264 106.113 391.005 105.485C391.747 104.858 392.089 104.002 392.089 102.976C392.089 102.063 391.861 101.265 391.404 100.694C390.948 100.124 390.321 99.6107 389.465 99.2115C388.61 98.8122 387.697 98.413 386.613 98.0137C385.986 97.7856 385.245 97.5004 384.503 97.1011C383.705 96.7019 382.963 96.2456 382.279 95.6753C381.594 95.1049 380.967 94.3635 380.511 93.565C380.054 92.7094 379.826 91.6828 379.826 90.4851C379.826 89.1162 380.168 87.9185 380.91 86.8348C381.594 85.8082 382.564 84.9526 383.819 84.3823C385.074 83.8119 386.442 83.4697 387.982 83.4697C389.522 83.4697 390.834 83.7549 391.975 84.3253C393.115 84.8956 394.085 85.58 394.827 86.3785C395.625 87.2341 396.195 88.0896 396.652 89.0021L393.172 90.9984C392.83 90.371 392.431 89.7436 391.918 89.2303C391.404 88.6599 390.834 88.2607 390.207 87.9185C389.579 87.5763 388.781 87.4052 387.925 87.4052C386.728 87.4052 385.815 87.6903 385.245 88.2607C384.674 88.831 384.389 89.4584 384.389 90.1999C384.389 90.8843 384.617 91.4547 385.016 91.968C385.416 92.4813 386.043 92.9946 386.899 93.4509C387.754 93.9072 388.895 94.4205 390.264 94.8768C391.062 95.1619 391.804 95.5042 392.602 95.9034C393.401 96.3027 394.085 96.816 394.712 97.4434C395.34 98.0707 395.853 98.8122 396.252 99.6107C396.652 100.466 396.823 101.436 396.823 102.577C396.823 103.774 396.595 104.858 396.081 105.828C395.568 106.797 394.941 107.596 394.142 108.223C393.344 108.85 392.431 109.364 391.404 109.706C390.378 110.048 389.294 110.219 388.21 110.219C386.728 110.219 385.302 109.934 384.047 109.307C382.735 108.679 381.651 107.881 380.682 106.911C379.712 105.885 378.971 104.801 378.4 103.603L381.651 101.322C382.108 102.519 382.678 103.375 383.362 104.116Z" fill="#57BED2"/>
<path d="M406.179 104.116C406.806 104.858 407.548 105.428 408.346 105.828C409.145 106.227 410 106.455 410.97 106.455C412.168 106.455 413.08 106.113 413.822 105.485C414.563 104.858 414.905 104.002 414.905 102.976C414.905 102.063 414.677 101.265 414.221 100.694C413.765 100.124 413.137 99.6107 412.282 99.2115C411.426 98.8122 410.514 98.413 409.43 98.0137C408.802 97.7856 408.061 97.5004 407.32 97.1011C406.521 96.7019 405.78 96.2456 405.095 95.6753C404.411 95.1049 403.783 94.3635 403.327 93.565C402.871 92.7094 402.643 91.6828 402.643 90.4851C402.643 89.1162 402.985 87.9185 403.726 86.8348C404.411 85.8082 405.38 84.9526 406.635 84.3823C407.89 83.8119 409.259 83.4697 410.799 83.4697C412.339 83.4697 413.65 83.7549 414.791 84.3253C415.932 84.8956 416.901 85.58 417.643 86.3785C418.441 87.2341 419.012 88.0896 419.468 89.0021L415.989 90.9984C415.647 90.371 415.247 89.7436 414.734 89.2303C414.221 88.6599 413.65 88.2607 413.023 87.9185C412.396 87.5763 411.597 87.4052 410.742 87.4052C409.544 87.4052 408.631 87.6903 408.061 88.2607C407.491 88.831 407.205 89.4584 407.205 90.1999C407.205 90.8843 407.434 91.4547 407.833 91.968C408.232 92.4813 408.859 92.9946 409.715 93.4509C410.571 93.9072 411.711 94.4205 413.08 94.8768C413.879 95.1619 414.62 95.5042 415.419 95.9034C416.217 96.3027 416.901 96.816 417.529 97.4434C418.156 98.0707 418.67 98.8122 419.069 99.6107C419.468 100.466 419.639 101.436 419.639 102.577C419.639 103.774 419.411 104.858 418.898 105.828C418.384 106.797 417.757 107.596 416.959 108.223C416.16 108.85 415.247 109.364 414.221 109.706C413.194 110.048 412.11 110.219 411.027 110.219C409.544 110.219 408.118 109.934 406.863 109.307C405.551 108.679 404.468 107.881 403.498 106.911C402.529 105.885 401.787 104.801 401.217 103.603L404.468 101.322C404.924 102.519 405.494 103.375 406.179 104.116Z" fill="#57BED2"/>
<path d="M415.333 74.7588H0.458984V79.1076H415.333V74.7588Z" fill="#FF969F"/>
</svg>
